# xmcd CD database file
# Generated: Wed Jun 4 12:27:26 2003 by KSCD
# 
# Track frame offsets:
#       150
#       5181
#       19969
#       37154
#       52422
#       61961
#       73069
#       87241
#       102636
#       115596
#       125549
#       137418
#       153554
#
# Disc length: 2250 seconds
#
# Revision: 1
# Processed by: cddbd v1.4PL0 Copyright (c) Steve Scherf et al.
# Submitted via: Kscd 1.3.3
#
DISCID=c008c80d
DTITLE=Sandra Fernández - Amor Cósmico
DYEAR=1900
DGENRE=
TTITLE0=Apertura
TTITLE1=Blues del Guiño
TTITLE2=Amor Cósmico
TTITLE3=Capa de Reina
TTITLE4=Sin Fe
TTITLE5=Ojos de Gato Azul
TTITLE6=Su Calzón 
TTITLE7=Cenicienta
TTITLE8=Comecartón
TTITLE9=Lo que Vendrá
TTITLE10=Kokoro Coach
TTITLE11=Esta Vez
TTITLE12=Sergeii Blues
EXTD=
EXTT0=
EXTT1=
EXTT2=
EXTT3=
EXTT4=
EXTT5=
EXTT6=
EXTT7=
EXTT8=
EXTT9=
EXTT10=
EXTT11=
EXTT12=
PLAYORDER=
